<mxfile host="app.diagrams.net" modified="2023-11-26T06:59:31.650Z" agent="Mozilla/5.0 (Windows NT 10.0; Win64; x64) AppleWebKit/537.36 (KHTML, like Gecko) Chrome/119.0.0.0 Safari/537.36" etag="QBJZJmYimmPT9A1gcsRb" version="22.1.4" type="github" pages="2">
  <diagram name="Activity" id="03ODm8QY8kII-jkfZdNP">
    <mxGraphModel dx="2150" dy="720" grid="1" gridSize="10" guides="1" tooltips="1" connect="1" arrows="1" fold="1" page="1" pageScale="1" pageWidth="827" pageHeight="1169" math="0" shadow="0">
      <root>
        <mxCell id="0" />
        <mxCell id="1" parent="0" />
        <mxCell id="Ksn9R6OK3Qde_pLSifGw-1" value="使用者" style="swimlane;whiteSpace=wrap;html=1;startSize=23;" vertex="1" parent="1">
          <mxGeometry x="80" y="440" width="320" height="560" as="geometry">
            <mxRectangle x="160" y="440" width="80" height="30" as="alternateBounds" />
          </mxGeometry>
        </mxCell>
        <mxCell id="Ksn9R6OK3Qde_pLSifGw-52" style="edgeStyle=orthogonalEdgeStyle;rounded=0;orthogonalLoop=1;jettySize=auto;html=1;exitX=0.5;exitY=1;exitDx=0;exitDy=0;entryX=0.5;entryY=0;entryDx=0;entryDy=0;" edge="1" parent="Ksn9R6OK3Qde_pLSifGw-1" source="Ksn9R6OK3Qde_pLSifGw-5" target="Ksn9R6OK3Qde_pLSifGw-51">
          <mxGeometry relative="1" as="geometry" />
        </mxCell>
        <mxCell id="Ksn9R6OK3Qde_pLSifGw-5" value="點選新增任務" style="rounded=1;whiteSpace=wrap;html=1;" vertex="1" parent="Ksn9R6OK3Qde_pLSifGw-1">
          <mxGeometry x="80" y="166" width="85" height="40" as="geometry" />
        </mxCell>
        <mxCell id="Ksn9R6OK3Qde_pLSifGw-6" value="點選現有任務" style="rounded=1;whiteSpace=wrap;html=1;" vertex="1" parent="Ksn9R6OK3Qde_pLSifGw-1">
          <mxGeometry x="175" y="166" width="85" height="40" as="geometry" />
        </mxCell>
        <mxCell id="Ksn9R6OK3Qde_pLSifGw-8" value="點選編輯" style="rounded=1;whiteSpace=wrap;html=1;" vertex="1" parent="Ksn9R6OK3Qde_pLSifGw-1">
          <mxGeometry x="175" y="296" width="85" height="40" as="geometry" />
        </mxCell>
        <mxCell id="Ksn9R6OK3Qde_pLSifGw-9" value="" style="line;strokeWidth=3;fillColor=none;align=left;verticalAlign=middle;spacingTop=-1;spacingLeft=3;spacingRight=3;rotatable=0;labelPosition=right;points=[];portConstraint=eastwest;strokeColor=inherit;direction=south;" vertex="1" parent="Ksn9R6OK3Qde_pLSifGw-1">
          <mxGeometry x="300" y="226" width="8" height="70" as="geometry" />
        </mxCell>
        <mxCell id="Ksn9R6OK3Qde_pLSifGw-10" style="edgeStyle=orthogonalEdgeStyle;rounded=0;orthogonalLoop=1;jettySize=auto;html=1;exitX=0;exitY=0.5;exitDx=0;exitDy=0;entryX=1;entryY=0.5;entryDx=0;entryDy=0;" edge="1" parent="Ksn9R6OK3Qde_pLSifGw-1" source="Ksn9R6OK3Qde_pLSifGw-11" target="Ksn9R6OK3Qde_pLSifGw-19">
          <mxGeometry relative="1" as="geometry" />
        </mxCell>
        <mxCell id="Ksn9R6OK3Qde_pLSifGw-11" value="點選刪除" style="rounded=1;whiteSpace=wrap;html=1;" vertex="1" parent="Ksn9R6OK3Qde_pLSifGw-1">
          <mxGeometry x="175" y="226" width="85" height="40" as="geometry" />
        </mxCell>
        <mxCell id="Ksn9R6OK3Qde_pLSifGw-12" style="edgeStyle=orthogonalEdgeStyle;rounded=0;orthogonalLoop=1;jettySize=auto;html=1;exitX=0;exitY=0.5;exitDx=0;exitDy=0;entryX=1;entryY=0.5;entryDx=0;entryDy=0;" edge="1" parent="Ksn9R6OK3Qde_pLSifGw-1" source="Ksn9R6OK3Qde_pLSifGw-13" target="Ksn9R6OK3Qde_pLSifGw-14">
          <mxGeometry relative="1" as="geometry" />
        </mxCell>
        <mxCell id="Ksn9R6OK3Qde_pLSifGw-13" value="輸入 / 修改內容" style="rounded=1;whiteSpace=wrap;html=1;" vertex="1" parent="Ksn9R6OK3Qde_pLSifGw-1">
          <mxGeometry x="175" y="384" width="85" height="40" as="geometry" />
        </mxCell>
        <mxCell id="Ksn9R6OK3Qde_pLSifGw-14" value="儲存" style="rounded=1;whiteSpace=wrap;html=1;" vertex="1" parent="Ksn9R6OK3Qde_pLSifGw-1">
          <mxGeometry x="17.5" y="384" width="85" height="40" as="geometry" />
        </mxCell>
        <mxCell id="Ksn9R6OK3Qde_pLSifGw-17" value="" style="endArrow=classic;html=1;rounded=0;entryX=1;entryY=0.5;entryDx=0;entryDy=0;" edge="1" parent="Ksn9R6OK3Qde_pLSifGw-1" target="Ksn9R6OK3Qde_pLSifGw-11">
          <mxGeometry width="50" height="50" relative="1" as="geometry">
            <mxPoint x="304" y="246" as="sourcePoint" />
            <mxPoint x="254" y="246" as="targetPoint" />
          </mxGeometry>
        </mxCell>
        <mxCell id="Ksn9R6OK3Qde_pLSifGw-18" value="" style="endArrow=classic;html=1;rounded=0;entryX=1;entryY=0.25;entryDx=0;entryDy=0;exitX=0.746;exitY=0.507;exitDx=0;exitDy=0;exitPerimeter=0;edgeStyle=orthogonalEdgeStyle;" edge="1" parent="Ksn9R6OK3Qde_pLSifGw-1" source="Ksn9R6OK3Qde_pLSifGw-9" target="Ksn9R6OK3Qde_pLSifGw-8">
          <mxGeometry width="50" height="50" relative="1" as="geometry">
            <mxPoint x="190" y="316" as="sourcePoint" />
            <mxPoint x="240" y="266" as="targetPoint" />
          </mxGeometry>
        </mxCell>
        <mxCell id="Ksn9R6OK3Qde_pLSifGw-19" value="確認刪除" style="rhombus;whiteSpace=wrap;html=1;" vertex="1" parent="Ksn9R6OK3Qde_pLSifGw-1">
          <mxGeometry x="20" y="226" width="80" height="40" as="geometry" />
        </mxCell>
        <mxCell id="Ksn9R6OK3Qde_pLSifGw-47" value="" style="line;strokeWidth=3;fillColor=none;align=left;verticalAlign=middle;spacingTop=-1;spacingLeft=3;spacingRight=3;rotatable=0;labelPosition=right;points=[];portConstraint=eastwest;strokeColor=inherit;" vertex="1" parent="Ksn9R6OK3Qde_pLSifGw-1">
          <mxGeometry x="120" y="126" width="100" height="8" as="geometry" />
        </mxCell>
        <mxCell id="Ksn9R6OK3Qde_pLSifGw-49" value="" style="endArrow=classic;html=1;rounded=0;entryX=0.5;entryY=0;entryDx=0;entryDy=0;exitX=0.292;exitY=0.571;exitDx=0;exitDy=0;exitPerimeter=0;edgeStyle=orthogonalEdgeStyle;" edge="1" parent="Ksn9R6OK3Qde_pLSifGw-1" source="Ksn9R6OK3Qde_pLSifGw-47" target="Ksn9R6OK3Qde_pLSifGw-5">
          <mxGeometry width="50" height="50" relative="1" as="geometry">
            <mxPoint x="50" y="180" as="sourcePoint" />
            <mxPoint x="100" y="130" as="targetPoint" />
            <Array as="points">
              <mxPoint x="149" y="150" />
              <mxPoint x="123" y="150" />
            </Array>
          </mxGeometry>
        </mxCell>
        <mxCell id="Ksn9R6OK3Qde_pLSifGw-50" value="" style="endArrow=classic;html=1;rounded=0;entryX=0.5;entryY=0;entryDx=0;entryDy=0;exitX=0.61;exitY=0.5;exitDx=0;exitDy=0;exitPerimeter=0;edgeStyle=orthogonalEdgeStyle;" edge="1" parent="Ksn9R6OK3Qde_pLSifGw-1" source="Ksn9R6OK3Qde_pLSifGw-47" target="Ksn9R6OK3Qde_pLSifGw-6">
          <mxGeometry width="50" height="50" relative="1" as="geometry">
            <mxPoint x="130" y="200" as="sourcePoint" />
            <mxPoint x="180" y="150" as="targetPoint" />
            <Array as="points">
              <mxPoint x="180" y="130" />
              <mxPoint x="180" y="150" />
              <mxPoint x="218" y="150" />
            </Array>
          </mxGeometry>
        </mxCell>
        <mxCell id="Ksn9R6OK3Qde_pLSifGw-51" value="是否從投資卡片中選擇" style="rhombus;whiteSpace=wrap;html=1;" vertex="1" parent="Ksn9R6OK3Qde_pLSifGw-1">
          <mxGeometry x="82.5" y="327" width="80" height="40" as="geometry" />
        </mxCell>
        <mxCell id="Ksn9R6OK3Qde_pLSifGw-20" value="系統前端" style="swimlane;whiteSpace=wrap;html=1;" vertex="1" parent="1">
          <mxGeometry x="400" y="440" width="240" height="560" as="geometry" />
        </mxCell>
        <mxCell id="Ksn9R6OK3Qde_pLSifGw-22" value="下方延展任務內容" style="rounded=1;whiteSpace=wrap;html=1;" vertex="1" parent="Ksn9R6OK3Qde_pLSifGw-20">
          <mxGeometry x="77.5" y="166" width="85" height="40" as="geometry" />
        </mxCell>
        <mxCell id="Ksn9R6OK3Qde_pLSifGw-23" value="進入新增修改頁面" style="rounded=1;whiteSpace=wrap;html=1;" vertex="1" parent="Ksn9R6OK3Qde_pLSifGw-20">
          <mxGeometry x="77.5" y="316" width="85" height="40" as="geometry" />
        </mxCell>
        <mxCell id="Ksn9R6OK3Qde_pLSifGw-45" style="edgeStyle=orthogonalEdgeStyle;rounded=0;orthogonalLoop=1;jettySize=auto;html=1;exitX=0.5;exitY=1;exitDx=0;exitDy=0;entryX=0.5;entryY=0;entryDx=0;entryDy=0;" edge="1" parent="Ksn9R6OK3Qde_pLSifGw-20" source="Ksn9R6OK3Qde_pLSifGw-3" target="Ksn9R6OK3Qde_pLSifGw-44">
          <mxGeometry relative="1" as="geometry" />
        </mxCell>
        <mxCell id="Ksn9R6OK3Qde_pLSifGw-3" value="" style="ellipse;html=1;shape=startState;fillColor=#000000;strokeColor=none;" vertex="1" parent="Ksn9R6OK3Qde_pLSifGw-20">
          <mxGeometry x="105" y="30" width="30" height="30" as="geometry" />
        </mxCell>
        <mxCell id="Ksn9R6OK3Qde_pLSifGw-44" value="預設置頂顯示當月任務" style="rounded=1;whiteSpace=wrap;html=1;" vertex="1" parent="Ksn9R6OK3Qde_pLSifGw-20">
          <mxGeometry x="77.5" y="90" width="85" height="40" as="geometry" />
        </mxCell>
        <mxCell id="Ksn9R6OK3Qde_pLSifGw-25" value="DB" style="swimlane;whiteSpace=wrap;html=1;" vertex="1" parent="1">
          <mxGeometry x="-160" y="440" width="240" height="560" as="geometry" />
        </mxCell>
        <mxCell id="Ksn9R6OK3Qde_pLSifGw-26" value="移除任務 (直接移除 DB 內容)" style="rounded=1;whiteSpace=wrap;html=1;" vertex="1" parent="Ksn9R6OK3Qde_pLSifGw-25">
          <mxGeometry x="60" y="226" width="85" height="40" as="geometry" />
        </mxCell>
        <mxCell id="Ksn9R6OK3Qde_pLSifGw-27" value="Insert / Update至 DB" style="rounded=1;whiteSpace=wrap;html=1;" vertex="1" parent="Ksn9R6OK3Qde_pLSifGw-25">
          <mxGeometry x="120" y="384" width="85" height="40" as="geometry" />
        </mxCell>
        <mxCell id="Ksn9R6OK3Qde_pLSifGw-28" value="" style="line;strokeWidth=3;fillColor=none;align=left;verticalAlign=middle;spacingTop=-1;spacingLeft=3;spacingRight=3;rotatable=0;labelPosition=right;points=[];portConstraint=eastwest;strokeColor=inherit;" vertex="1" parent="Ksn9R6OK3Qde_pLSifGw-25">
          <mxGeometry x="70" y="464" width="100" height="8" as="geometry" />
        </mxCell>
        <mxCell id="Ksn9R6OK3Qde_pLSifGw-29" style="edgeStyle=orthogonalEdgeStyle;rounded=0;orthogonalLoop=1;jettySize=auto;html=1;exitX=0.25;exitY=1;exitDx=0;exitDy=0;entryX=0.11;entryY=0;entryDx=0;entryDy=0;entryPerimeter=0;" edge="1" parent="Ksn9R6OK3Qde_pLSifGw-25" source="Ksn9R6OK3Qde_pLSifGw-26" target="Ksn9R6OK3Qde_pLSifGw-28">
          <mxGeometry relative="1" as="geometry" />
        </mxCell>
        <mxCell id="Ksn9R6OK3Qde_pLSifGw-30" style="edgeStyle=orthogonalEdgeStyle;rounded=0;orthogonalLoop=1;jettySize=auto;html=1;exitX=0.5;exitY=1;exitDx=0;exitDy=0;entryX=0.923;entryY=0.083;entryDx=0;entryDy=0;entryPerimeter=0;" edge="1" parent="Ksn9R6OK3Qde_pLSifGw-25" source="Ksn9R6OK3Qde_pLSifGw-27" target="Ksn9R6OK3Qde_pLSifGw-28">
          <mxGeometry relative="1" as="geometry" />
        </mxCell>
        <mxCell id="Ksn9R6OK3Qde_pLSifGw-31" value="" style="ellipse;html=1;shape=endState;fillColor=#000000;strokeColor=default;" vertex="1" parent="Ksn9R6OK3Qde_pLSifGw-25">
          <mxGeometry x="105" y="504" width="30" height="30" as="geometry" />
        </mxCell>
        <mxCell id="Ksn9R6OK3Qde_pLSifGw-32" value="" style="endArrow=classic;html=1;rounded=0;entryX=0.5;entryY=0;entryDx=0;entryDy=0;" edge="1" parent="Ksn9R6OK3Qde_pLSifGw-25" target="Ksn9R6OK3Qde_pLSifGw-31">
          <mxGeometry width="50" height="50" relative="1" as="geometry">
            <mxPoint x="120" y="469" as="sourcePoint" />
            <mxPoint x="120" y="499" as="targetPoint" />
          </mxGeometry>
        </mxCell>
        <mxCell id="Ksn9R6OK3Qde_pLSifGw-34" style="edgeStyle=orthogonalEdgeStyle;rounded=0;orthogonalLoop=1;jettySize=auto;html=1;exitX=1;exitY=0.5;exitDx=0;exitDy=0;entryX=0;entryY=0.5;entryDx=0;entryDy=0;" edge="1" parent="1" source="Ksn9R6OK3Qde_pLSifGw-6" target="Ksn9R6OK3Qde_pLSifGw-22">
          <mxGeometry relative="1" as="geometry" />
        </mxCell>
        <mxCell id="Ksn9R6OK3Qde_pLSifGw-35" style="edgeStyle=orthogonalEdgeStyle;rounded=0;orthogonalLoop=1;jettySize=auto;html=1;exitX=0.5;exitY=1;exitDx=0;exitDy=0;entryX=0.552;entryY=0.5;entryDx=0;entryDy=0;entryPerimeter=0;" edge="1" parent="1" source="Ksn9R6OK3Qde_pLSifGw-22" target="Ksn9R6OK3Qde_pLSifGw-9">
          <mxGeometry relative="1" as="geometry" />
        </mxCell>
        <mxCell id="Ksn9R6OK3Qde_pLSifGw-36" style="edgeStyle=orthogonalEdgeStyle;rounded=0;orthogonalLoop=1;jettySize=auto;html=1;exitX=1;exitY=0.75;exitDx=0;exitDy=0;entryX=0;entryY=0.25;entryDx=0;entryDy=0;" edge="1" parent="1" source="Ksn9R6OK3Qde_pLSifGw-8" target="Ksn9R6OK3Qde_pLSifGw-23">
          <mxGeometry relative="1" as="geometry" />
        </mxCell>
        <mxCell id="Ksn9R6OK3Qde_pLSifGw-38" style="edgeStyle=orthogonalEdgeStyle;rounded=0;orthogonalLoop=1;jettySize=auto;html=1;exitX=0;exitY=0.5;exitDx=0;exitDy=0;entryX=1;entryY=0.5;entryDx=0;entryDy=0;" edge="1" parent="1" source="Ksn9R6OK3Qde_pLSifGw-19" target="Ksn9R6OK3Qde_pLSifGw-26">
          <mxGeometry relative="1" as="geometry" />
        </mxCell>
        <mxCell id="Ksn9R6OK3Qde_pLSifGw-39" value="是" style="edgeLabel;html=1;align=center;verticalAlign=middle;resizable=0;points=[];" vertex="1" connectable="0" parent="Ksn9R6OK3Qde_pLSifGw-38">
          <mxGeometry x="0.1322" y="-1" relative="1" as="geometry">
            <mxPoint as="offset" />
          </mxGeometry>
        </mxCell>
        <mxCell id="Ksn9R6OK3Qde_pLSifGw-40" style="edgeStyle=orthogonalEdgeStyle;rounded=0;orthogonalLoop=1;jettySize=auto;html=1;exitX=0.5;exitY=1;exitDx=0;exitDy=0;entryX=1;entryY=0.5;entryDx=0;entryDy=0;" edge="1" parent="1" source="Ksn9R6OK3Qde_pLSifGw-23" target="Ksn9R6OK3Qde_pLSifGw-13">
          <mxGeometry relative="1" as="geometry">
            <mxPoint x="520" y="858.9999999999998" as="sourcePoint" />
          </mxGeometry>
        </mxCell>
        <mxCell id="Ksn9R6OK3Qde_pLSifGw-41" style="edgeStyle=orthogonalEdgeStyle;rounded=0;orthogonalLoop=1;jettySize=auto;html=1;exitX=0;exitY=0.5;exitDx=0;exitDy=0;entryX=1;entryY=0.5;entryDx=0;entryDy=0;" edge="1" parent="1" source="Ksn9R6OK3Qde_pLSifGw-14" target="Ksn9R6OK3Qde_pLSifGw-27">
          <mxGeometry relative="1" as="geometry" />
        </mxCell>
        <mxCell id="Ksn9R6OK3Qde_pLSifGw-42" style="edgeStyle=orthogonalEdgeStyle;rounded=0;orthogonalLoop=1;jettySize=auto;html=1;exitX=0.5;exitY=1;exitDx=0;exitDy=0;entryX=0.3;entryY=0;entryDx=0;entryDy=0;entryPerimeter=0;" edge="1" parent="1" source="Ksn9R6OK3Qde_pLSifGw-19" target="Ksn9R6OK3Qde_pLSifGw-28">
          <mxGeometry relative="1" as="geometry">
            <Array as="points">
              <mxPoint x="140" y="726" />
              <mxPoint x="-60" y="726" />
            </Array>
          </mxGeometry>
        </mxCell>
        <mxCell id="Ksn9R6OK3Qde_pLSifGw-43" value="否" style="edgeLabel;html=1;align=center;verticalAlign=middle;resizable=0;points=[];" vertex="1" connectable="0" parent="Ksn9R6OK3Qde_pLSifGw-42">
          <mxGeometry x="-0.3651" y="1" relative="1" as="geometry">
            <mxPoint as="offset" />
          </mxGeometry>
        </mxCell>
        <mxCell id="Ksn9R6OK3Qde_pLSifGw-48" style="edgeStyle=orthogonalEdgeStyle;rounded=0;orthogonalLoop=1;jettySize=auto;html=1;exitX=0;exitY=0.5;exitDx=0;exitDy=0;" edge="1" parent="1" source="Ksn9R6OK3Qde_pLSifGw-44">
          <mxGeometry relative="1" as="geometry">
            <mxPoint x="477.5" y="529" as="sourcePoint" />
            <mxPoint x="248" y="569" as="targetPoint" />
            <Array as="points">
              <mxPoint x="248" y="550" />
            </Array>
          </mxGeometry>
        </mxCell>
        <mxCell id="Ksn9R6OK3Qde_pLSifGw-53" style="edgeStyle=orthogonalEdgeStyle;rounded=0;orthogonalLoop=1;jettySize=auto;html=1;exitX=1;exitY=0.5;exitDx=0;exitDy=0;entryX=0;entryY=0.75;entryDx=0;entryDy=0;" edge="1" parent="1" source="Ksn9R6OK3Qde_pLSifGw-51" target="Ksn9R6OK3Qde_pLSifGw-23">
          <mxGeometry relative="1" as="geometry" />
        </mxCell>
        <mxCell id="Ksn9R6OK3Qde_pLSifGw-54" value="否" style="edgeLabel;html=1;align=center;verticalAlign=middle;resizable=0;points=[];" vertex="1" connectable="0" parent="Ksn9R6OK3Qde_pLSifGw-53">
          <mxGeometry x="0.0153" y="1" relative="1" as="geometry">
            <mxPoint as="offset" />
          </mxGeometry>
        </mxCell>
        <mxCell id="Ksn9R6OK3Qde_pLSifGw-55" style="edgeStyle=orthogonalEdgeStyle;rounded=0;orthogonalLoop=1;jettySize=auto;html=1;exitX=0;exitY=0.5;exitDx=0;exitDy=0;entryX=0.5;entryY=0;entryDx=0;entryDy=0;" edge="1" parent="1" source="Ksn9R6OK3Qde_pLSifGw-51" target="Ksn9R6OK3Qde_pLSifGw-27">
          <mxGeometry relative="1" as="geometry" />
        </mxCell>
        <mxCell id="Ksn9R6OK3Qde_pLSifGw-56" value="是" style="edgeLabel;html=1;align=center;verticalAlign=middle;resizable=0;points=[];" vertex="1" connectable="0" parent="Ksn9R6OK3Qde_pLSifGw-55">
          <mxGeometry x="-0.5792" relative="1" as="geometry">
            <mxPoint as="offset" />
          </mxGeometry>
        </mxCell>
        <mxCell id="Ksn9R6OK3Qde_pLSifGw-61" style="edgeStyle=orthogonalEdgeStyle;rounded=0;orthogonalLoop=1;jettySize=auto;html=1;exitX=1;exitY=0.5;exitDx=0;exitDy=0;entryX=0;entryY=0.5;entryDx=0;entryDy=0;endArrow=none;endFill=0;dashed=1;" edge="1" parent="1" source="Ksn9R6OK3Qde_pLSifGw-60" target="Ksn9R6OK3Qde_pLSifGw-27">
          <mxGeometry relative="1" as="geometry" />
        </mxCell>
        <mxCell id="Ksn9R6OK3Qde_pLSifGw-60" value="可能有一欄位儲存屬於的投資類別與&lt;b&gt;顯示的月計畫 (default null)&lt;/b&gt;" style="rounded=1;whiteSpace=wrap;html=1;dashed=1;" vertex="1" parent="1">
          <mxGeometry x="-380" y="810" width="150" height="66" as="geometry" />
        </mxCell>
      </root>
    </mxGraphModel>
  </diagram>
  <diagram id="6b6FLeODV4ce7dBdGoHb" name="Sequence">
    <mxGraphModel dx="794" dy="432" grid="1" gridSize="10" guides="1" tooltips="1" connect="1" arrows="1" fold="1" page="1" pageScale="1" pageWidth="827" pageHeight="1169" math="0" shadow="0">
      <root>
        <mxCell id="0" />
        <mxCell id="1" parent="0" />
      </root>
    </mxGraphModel>
  </diagram>
</mxfile>
